<svg width="25" height="24" viewBox="0 0 25 24" fill="none" xmlns="http://www.w3.org/2000/svg">
<path d="M12.7148 0C6.09609 0 0.714844 5.38125 0.714844 12C0.714844 18.6187 6.09609 24 12.7148 24C19.3336 24 24.7148 18.6187 24.7148 12C24.7148 5.38125 19.3336 0 12.7148 0Z" fill="#6B7280"/>
<path fill-rule="evenodd" clip-rule="evenodd" d="M16.1594 5.92237C16.1485 5.99123 16.1429 6.06187 16.1429 6.13386C16.1429 6.86078 16.7185 7.45006 17.4286 7.45006C18.1387 7.45006 18.7143 6.86078 18.7143 6.13386C18.7143 5.40695 18.1387 4.81767 17.4286 4.81767C17.1122 4.81767 16.8225 4.93467 16.5985 5.12872L13.2596 4.28564L12.0528 9.22715C10.4475 9.33529 9.0037 9.83299 7.91454 10.5844C7.60531 10.2739 7.18164 10.0824 6.71429 10.0824C5.76751 10.0824 5 10.8682 5 11.8374C5 12.5119 5.37171 13.0975 5.91686 13.3913C5.87747 13.6006 5.85714 13.8141 5.85714 14.031C5.85714 16.6964 8.92719 18.8571 12.7143 18.8571C16.5014 18.8571 19.5714 16.6964 19.5714 14.031C19.5714 13.8141 19.5511 13.6006 19.5117 13.3913C20.0569 13.0975 20.4286 12.5119 20.4286 11.8374C20.4286 10.8682 19.6611 10.0824 18.7143 10.0824C18.2469 10.0824 17.8233 10.2739 17.514 10.5844C16.3274 9.76576 14.7199 9.24827 12.9411 9.20757L13.8833 5.34972L16.1594 5.92237ZM9.71429 14.4698C10.4244 14.4698 11 13.8805 11 13.1536C11 12.4267 10.4244 11.8374 9.71429 11.8374C9.00421 11.8374 8.42857 12.4267 8.42857 13.1536C8.42857 13.8805 9.00421 14.4698 9.71429 14.4698ZM15.7143 14.4698C16.4244 14.4698 17 13.8805 17 13.1536C17 12.4267 16.4244 11.8374 15.7143 11.8374C15.0042 11.8374 14.4286 12.4267 14.4286 13.1536C14.4286 13.8805 15.0042 14.4698 15.7143 14.4698ZM9.95201 15.8596C9.75507 15.7252 9.48899 15.7797 9.35769 15.9813C9.2264 16.1829 9.27962 16.4553 9.47656 16.5897C10.4092 17.2262 11.5617 17.5445 12.7143 17.5445C13.8668 17.5445 15.0194 17.2262 15.952 16.5897C16.149 16.4553 16.2022 16.1829 16.0709 15.9813C15.9396 15.7797 15.6735 15.7252 15.4766 15.8596C14.6879 16.3979 13.7011 16.667 12.7143 16.667C12.1291 16.667 11.5439 16.5724 11 16.3831C10.6268 16.2532 10.273 16.0787 9.95201 15.8596Z" fill="currentColor"/>
</svg>
